<?xml version="1.0" encoding="UTF-8" standalone="no"?>
<svg
   xmlns:dc="http://purl.org/dc/elements/1.1/"
   xmlns:cc="http://creativecommons.org/ns#"
   xmlns:rdf="http://www.w3.org/1999/02/22-rdf-syntax-ns#"
   xmlns:svg="http://www.w3.org/2000/svg"
   xmlns="http://www.w3.org/2000/svg"
   id="svg6843"
   height="500"
   width="700"
   version="1.2">
  <defs
     id="defs6845" />
  <metadata
     id="metadata6848">
    <rdf:RDF>
      <cc:Work
         rdf:about="">
        <dc:format>image/svg+xml</dc:format>
        <dc:type
           rdf:resource="http://purl.org/dc/dcmitype/StillImage" />
        <dc:title></dc:title>
      </cc:Work>
    </rdf:RDF>
  </metadata>
  <rect
     style="fill:#ffffff;fill-opacity:1;stroke:none"
     id="rect6851"
     y="2.6171874e-06"
     x="0"
     height="500"
     width="700" />
  <path
     style="font-size:medium;font-style:normal;font-variant:normal;font-weight:normal;font-stretch:normal;text-indent:0;text-align:start;text-decoration:none;line-height:normal;letter-spacing:normal;word-spacing:normal;text-transform:none;direction:ltr;block-progression:tb;writing-mode:lr-tb;text-anchor:start;baseline-shift:baseline;color:#000000;fill:#00b2e2;fill-opacity:1;stroke:none;stroke-width:2.00600004;marker:none;visibility:visible;display:inline;overflow:visible;enable-background:accumulate;font-family:Sans;-inkscape-font-specification:Sans"
     id="rect6853"
     d="m 16,15 0,2 8.03125,0 0,-2 z m 12.03125,0 0,2 8.03125,0 0,-2 z m 12.03125,0 0,2 8.03125,0 0,-2 z m 12.0625,0 0,2 8,0 0,-2 z m 12.03125,0 0,2 8,0 0,-2 z m 12.03125,0 0,2 8.03125,0 0,-2 z m 12.03125,0 0,2 8.03125,0 0,-2 z m 12.03125,0 0,2 8.03125,0 0,-2 z m 12.03125,0 0,2 8.03125,0 0,-2 z m 12.03125,0 0,2 8.03125,0 0,-2 z m 12.0625,0 0,2 8,0 0,-2 z m 12.03125,0 0,2 8.03125,0 0,-2 z m 12.03125,0 0,2 8.03125,0 0,-2 z m 12.03125,0 0,2 8.03125,0 0,-2 z m 12.03125,0 0,2 8.03125,0 0,-2 z m 12.03125,0 0,2 8.03125,0 0,-2 z m 300.90625,0 0,2 8.03125,0 0,-2 z m 12.03125,0 0,2 8.03125,0 0,-2 z m 12.03125,0 0,2 8.03125,0 0,-2 z m 12.0625,0 0,2 8,0 0,-2 z m 12.03125,0 0,2 8.03125,0 0,-2 z m 12.03125,0 0,2 8.03125,0 0,-2 z m 12.03125,0 0,2 8.03125,0 0,-2 z m 12.03125,0 0,2 8.03125,0 0,-2 z m 12.03125,0 0,2 8.03125,0 0,-2 z m 12.0625,0 0,2 8,0 0,-2 z m 12.03125,0 0,2 8,0 0,-2 z m 12.03125,0 0,2 8.03125,0 0,-2 z m 12.03125,0 0,2 8.03125,0 0,-2 z m 12.03125,0 0,2 8.03125,0 0,-2 z m 12.03125,0 0,2 8.03125,0 0,-2 z m 12.03125,0 0,2 5.03125,0 0,1 2,0 0,-2 -0.40625,-0.8125 L 684,15 z M 15,17.1875 l 0,8 2,0 0,-8 z M 683,22 l 0,8.03125 2,0 L 685,22 z m -668,7.21875 0,8 2,0 0,-8 z m 668,4.84375 0,8 2,0 0,-8 z M 15,41.25 l 0,8.03125 2,0 0,-8.03125 z m 668,4.84375 0,8 2,0 0,-8 z m -668,7.1875 0,8.03125 2,0 0,-8.03125 z m 668,4.84375 0,8.03125 2,0 0,-8.03125 z m -668,7.1875 0,8.03125 2,0 0,-8.03125 z m 668,4.84375 0,8.03125 2,0 0,-8.03125 z m -668,7.1875 0,8.03125 2,0 0,-8.03125 z m 668,4.84375 0,8.03125 2,0 0,-8.03125 z m -668,7.1875 0,8.03125 2,0 0,-8.03125 z m 668,4.84375 0,8.03125 2,0 0,-8.03125 z m -668,7.21875 0,8 2,0 0,-8 z m 668,4.8125 0,8.03125 2,0 0,-8.03125 z m -668,7.21875 0,8 2,0 0,-8 z m 668,4.84375 0,8 2,0 0,-8 z M 15,125.5 l 0,8.03125 2,0 0,-8.03125 z m 668,4.84375 0,8.03125 2,0 0,-8.03125 z m -668,7.1875 0,8.03125 2,0 0,-8.03125 z m 668,4.84375 0,8.03125 2,0 0,-8.03125 z m -668,7.1875 0,8.03125 2,0 0,-8.03125 z m 668,4.84375 0,8.03125 2,0 0,-8.03125 z m -668,7.1875 0,8.03125 2,0 0,-8.03125 z m 668,4.84375 0,8.03125 2,0 0,-8.03125 z m -668,7.1875 0,8.03125 2,0 0,-8.03125 z m 668,4.84375 0,8.03125 2,0 0,-8.03125 z m -668,7.21875 0,8 2,0 0,-8 z m 668,4.84375 0,8 2,0 0,-8 z m -668,7.1875 0,8.03125 2,0 0,-8.03125 z m 668,4.84375 0,8 2,0 0,-8 z m -668,7.1875 0,8.03125 2,0 0,-8.03125 z m 668,4.84375 0,8.03125 2,0 0,-8.03125 z m -668,7.1875 0,8.03125 2,0 0,-8.03125 z m 668,4.84375 0,8.03125 2,0 0,-8.03125 z m -668,7.1875 0,8.03125 2,0 0,-8.03125 z m 668,4.84375 0,8.03125 2,0 0,-8.03125 z m -668,7.1875 0,8.03125 2,0 0,-8.03125 z m 668,4.84375 0,8.03125 2,0 0,-8.03125 z m -668,7.21875 0,8 2,0 0,-8 z m 668,4.8125 0,8.03125 2,0 0,-8.03125 z m -668,7.21875 0,8 2,0 0,-8 z m 668,4.84375 0,8 2,0 0,-8 z m -668,7.1875 0,8.03125 2,0 0,-8.03125 z m 668,4.84375 0,8.03125 2,0 0,-8.03125 z M 15,294 l 0,8.03125 2,0 L 17,294 z m 668,4.84375 0,8.03125 2,0 0,-8.03125 z m -668,7.1875 0,8.03125 2,0 0,-8.03125 z m 668,4.84375 0,8.03125 2,0 0,-8.03125 z m -668,7.1875 0,8.03125 2,0 0,-8.03125 z m 668,4.84375 0,8.03125 2,0 0,-8.03125 z m -668,7.1875 0,8.03125 2,0 0,-8.03125 z m 668,4.84375 0,8.03125 2,0 0,-8.03125 z m -668,7.21875 0,8 2,0 0,-8 z M 683,347 l 0,8 2,0 0,-8 z m -668,7.1875 0,8.03125 2,0 0,-8.03125 z m 668,4.84375 0,8 2,0 0,-8 z m -668,7.1875 0,8.03125 2,0 0,-8.03125 z m 668,4.84375 0,8.03125 2,0 0,-8.03125 z m -668,7.1875 0,8.03125 2,0 0,-8.03125 z m 668,4.84375 0,8.03125 2,0 0,-8.03125 z m -668,7.1875 0,8.03125 2,0 0,-8.03125 z m 668,4.84375 0,8.03125 2,0 0,-8.03125 z m -668,7.1875 0,8.03125 2,0 0,-8.03125 z m 668,4.84375 0,8.03125 2,0 0,-8.03125 z m -668,7.21875 0,8 2,0 0,-8 z m 668,4.8125 0,8.03125 2,0 0,-8.03125 z m -668,7.21875 0,8 2,0 0,-8 z m 668,4.84375 0,8 2,0 0,-8 z m -668,7.1875 0,8.03125 2,0 0,-8.03125 z m 668,4.84375 0,8.03125 2,0 0,-8.03125 z m -668,7.1875 0,8.03125 2,0 0,-8.03125 z m 668,4.84375 0,8.03125 2,0 0,-8.03125 z M 15,462.5 l 0,8.03125 2,0 0,-8.03125 z m 668,4.84375 0,8.03125 2,0 0,-8.03125 z m -668,7.1875 0,8.03125 2,0 0,-8.03125 z m 668,4.84375 0,3.59375 -2.4375,0 0,2.03125 3.4375,0 0.8125,-0.40625 0.1875,-0.625 0,-4.59375 z m -664.40625,3.59375 0,2.03125 8.03125,0 0,-2.03125 z m 12.03125,0 0,2.03125 8.03125,0 0,-2.03125 z m 12.03125,0 0,2.03125 8.03125,0 0,-2.03125 z m 12.0625,0 0,2.03125 8,0 0,-2.03125 z m 12.03125,0 0,2.03125 8,0 0,-2.03125 z m 12.03125,0 0,2.03125 8.03125,0 0,-2.03125 z m 12.03125,0 0,2.03125 8.03125,0 0,-2.03125 z m 12.03125,0 0,2.03125 8.03125,0 0,-2.03125 z m 12.03125,0 0,2.03125 8.03125,0 0,-2.03125 z m 12.03125,0 0,2.03125 8.03125,0 0,-2.03125 z m 12.0625,0 0,2.03125 8,0 0,-2.03125 z m 12.03125,0 0,2.03125 8.03125,0 0,-2.03125 z m 12.03125,0 0,2.03125 8.03125,0 0,-2.03125 z m 12.03125,0 0,2.03125 8.03125,0 0,-2.03125 z m 12.03125,0 0,2.03125 8.03125,0 0,-2.03125 z m 12.03125,0 0,2.03125 5.875,0 0,-2.03125 z m 300.90625,0 0,2.03125 8.03125,0 0,-2.03125 z m 12.03125,0 0,2.03125 8.03125,0 0,-2.03125 z m 12.03125,0 0,2.03125 8.03125,0 0,-2.03125 z m 12.0625,0 0,2.03125 8,0 0,-2.03125 z m 12.03125,0 0,2.03125 8.03125,0 0,-2.03125 z m 12.03125,0 0,2.03125 8.03125,0 0,-2.03125 z m 12.03125,0 0,2.03125 8.03125,0 0,-2.03125 z m 12.03125,0 0,2.03125 8.03125,0 0,-2.03125 z m 12.03125,0 0,2.03125 8.03125,0 0,-2.03125 z m 12.0625,0 0,2.03125 8,0 0,-2.03125 z m 12.03125,0 0,2.03125 8,0 0,-2.03125 z m 12.03125,0 0,2.03125 8.03125,0 0,-2.03125 z m 12.03125,0 0,2.03125 8.03125,0 0,-2.03125 z m 12.03125,0 0,2.03125 8.03125,0 0,-2.03125 z m 12.03125,0 0,2.03125 8.03125,0 0,-2.03125 z" />
  <text
     style="font-size:39.99998474px;font-style:normal;font-weight:normal;line-height:125%;letter-spacing:66.10997772px;word-spacing:0px;fill:#00b2e2;fill-opacity:1;stroke:none;font-family:Sans;"
     xml:space="preserve"
     id="text10184"
     y="22.19507"
     x="214.86406"><tspan
       style="font-size:19.99999237px;font-style:normal;font-variant:normal;font-weight:normal;font-stretch:normal;letter-spacing:0px;fill:#00b2e2;fill-opacity:1;font-family:Open Sans;-inkscape-font-specification:Open Sans;"
       id="tspan10186"
       y="22.19507"
       x="214.86406">24×7 Priority Support for SAP</tspan></text>
  <text
     style="font-size:39.99998474px;font-style:normal;font-weight:normal;line-height:125%;letter-spacing:66.10997772px;word-spacing:0px;fill:#00b2e2;fill-opacity:1;stroke:none;font-family:Sans;"
     xml:space="preserve"
     id="text10184-2"
     y="492.19507"
     x="214.86406"><tspan
       style="font-size:19.99999237px;font-style:normal;font-variant:normal;font-weight:normal;font-stretch:normal;letter-spacing:0px;fill:#00b2e2;fill-opacity:1;font-family:Open Sans;-inkscape-font-specification:Open Sans;"
       id="tspan10186-3"
       y="492.19507"
       x="214.86406">24×7 Priority Support for SAP</tspan></text>
  <rect
     style="fill:#02d35f;fill-opacity:1;stroke:none"
     id="rect10220"
     y="365"
     x="35"
     height="100"
     width="630" />
  <rect
     style="fill:#02d35f;fill-opacity:1;stroke:none"
     id="rect10222"
     y="255"
     x="35"
     height="100"
     width="310" />
  <rect
     style="fill:#00b2e2;fill-opacity:1;stroke:none"
     id="rect10222-2-4"
     y="255"
     x="515"
     height="100"
     width="150" />
  <rect
     style="fill:#00b2e2;fill-opacity:1;stroke:none"
     id="rect10222-2-9"
     y="145"
     x="355"
     height="100"
     width="150" />
  <rect
     style="fill:#00b2e2;fill-opacity:1;stroke:none"
     id="rect10222-2-4-1"
     y="145"
     x="515"
     height="100"
     width="150" />
  <rect
     style="fill:#00b2e2;fill-opacity:1;stroke:none"
     id="rect10222-2-94"
     y="145"
     x="35"
     height="100"
     width="150" />
  <rect
     style="fill:#00b2e2;fill-opacity:1;stroke:none"
     id="rect10222-2-4-10"
     y="145"
     x="195"
     height="100"
     width="150" />
  <rect
     style="fill:#00b2e2;fill-opacity:1;stroke:none"
     id="rect10220-3"
     y="35.000004"
     x="35"
     height="100"
     width="630" />
  <g
     style="fill:#00b2e2"
     id="g3132">
    <path
       style="fill:#00b2e2;fill-opacity:1;stroke:none"
       id="rect10222-2-2"
       d="m 504,258 0,96 -146,0 0,2 148,0 0,-98 z" />
    <rect
       style="fill:#00b2e2;fill-opacity:1;stroke:none"
       id="rect10222-2"
       y="255"
       x="355"
       height="98"
       width="148" />
    <path
       style="fill:#00b2e2;fill-opacity:1;stroke:none"
       id="rect10222-2-2-5"
       d="m 507,261 0,96 -146,0 0,2 148,0 0,-98 z" />
  </g>
  <g
     id="g3062"
     transform="translate(0,3.8146973e-6)">
    <text
       style="font-style:normal;font-weight:normal;font-size:40px;line-height:110.00000238%;font-family:Sans;letter-spacing:0px;word-spacing:0px;fill:#ffffff;fill-opacity:1;stroke:none"
       xml:space="preserve"
       id="text10385"
       y="80.195312"
       x="159.75586"><tspan
         style="font-style:normal;font-variant:normal;font-weight:600;font-stretch:normal;font-size:20px;line-height:110.00000238%;font-family:'Open Sans';-inkscape-font-specification:'Open Sans Semi-Bold';fill:#ffffff"
         id="tspan10387"
         y="80.195312"
         x="159.75586">Extended Service Pack Overlap Support</tspan></text>
    <text
       style="font-size:40px;font-style:normal;font-weight:normal;line-height:125%;letter-spacing:0px;word-spacing:0px;fill:#ffffff;fill-opacity:1;stroke:none;font-family:Sans"
       xml:space="preserve"
       id="text10385-4"
       y="101.15625"
       x="263.70703"><tspan
         style="font-size:16px;font-style:normal;font-variant:normal;font-weight:normal;font-stretch:normal;fill:#ffffff;font-family:Open Sans;-inkscape-font-specification:Open Sans"
         id="tspan10387-9"
         y="101.15625"
         x="263.70703">18 Month Grace Period</tspan></text>
  </g>
  <text
     style="font-size:40px;font-style:normal;font-weight:normal;text-align:center;line-height:110.00000238%;letter-spacing:0px;word-spacing:0px;text-anchor:middle;fill:#ffffff;fill-opacity:1;stroke:none;font-family:Sans"
     xml:space="preserve"
     id="text10385-5"
     y="189.19531"
     x="109.31641"><tspan
       style="font-size:20px;font-style:normal;font-variant:normal;font-weight:600;font-stretch:normal;text-align:center;line-height:110.00000238%;text-anchor:middle;fill:#ffffff;font-family:Open Sans;-inkscape-font-specification:Open Sans Semi-Bold"
       id="tspan10387-5"
       y="189.19531"
       x="109.31641">Page Cache</tspan><tspan
       style="font-size:20px;font-style:normal;font-variant:normal;font-weight:600;font-stretch:normal;text-align:center;line-height:110.00000238%;text-anchor:middle;fill:#ffffff;font-family:Open Sans;-inkscape-font-specification:Open Sans Semi-Bold"
       id="tspan10450"
       y="211.19531"
       x="109.31641">Management</tspan></text>
  <text
     style="font-size:40px;font-style:normal;font-weight:normal;text-align:center;line-height:110.00000238%;letter-spacing:0px;word-spacing:0px;text-anchor:middle;fill:#ffffff;fill-opacity:1;stroke:none;font-family:Sans"
     xml:space="preserve"
     id="text10385-12"
     y="188.83887"
     x="429.51172"><tspan
       style="font-size:20px;font-style:normal;font-variant:normal;font-weight:600;font-stretch:normal;text-align:center;line-height:110.00000238%;text-anchor:middle;fill:#ffffff;font-family:Open Sans;-inkscape-font-specification:Open Sans Semi-Bold"
       id="tspan10387-0"
       y="188.83887"
       x="429.51172">SAP HANA</tspan><tspan
       style="font-size:20px;font-style:normal;font-variant:normal;font-weight:600;font-stretch:normal;text-align:center;line-height:110.00000238%;text-anchor:middle;fill:#ffffff;font-family:Open Sans;-inkscape-font-specification:Open Sans Semi-Bold"
       id="tspan10491"
       y="210.83887"
       x="429.51172">Security</tspan></text>
  <text
     style="font-size:40px;font-style:normal;font-weight:normal;text-align:center;line-height:110.00000238%;letter-spacing:0px;word-spacing:0px;text-anchor:middle;fill:#ffffff;fill-opacity:1;stroke:none;font-family:Sans"
     xml:space="preserve"
     id="text10385-8"
     y="180.90961"
     x="588.10895"><tspan
       style="font-size:20px;font-style:normal;font-variant:normal;font-weight:600;font-stretch:normal;text-align:center;line-height:110.00000238%;text-anchor:middle;fill:#ffffff;font-family:Open Sans;-inkscape-font-specification:Open Sans Semi-Bold"
       id="tspan10387-6"
       y="180.90961"
       x="588.10895">Simplified</tspan><tspan
       style="font-size:20px;font-style:normal;font-variant:normal;font-weight:600;font-stretch:normal;text-align:center;line-height:110.00000238%;text-anchor:middle;fill:#ffffff;font-family:Open Sans;-inkscape-font-specification:Open Sans Semi-Bold"
       id="tspan10493"
       y="202.90961"
       x="588.10895">Operations</tspan><tspan
       style="font-size:20px;font-style:normal;font-variant:normal;font-weight:600;font-stretch:normal;text-align:center;line-height:110.00000238%;text-anchor:middle;fill:#ffffff;font-family:Open Sans;-inkscape-font-specification:Open Sans Semi-Bold"
       id="tspan10495"
       y="224.90961"
       x="588.10895">Management</tspan></text>
  <text
     style="font-size:40px;font-style:normal;font-weight:normal;text-align:center;line-height:110.00000238%;letter-spacing:0px;word-spacing:0px;text-anchor:middle;fill:#ffffff;fill-opacity:1;stroke:none;font-family:Sans"
     xml:space="preserve"
     id="text10385-12-9"
     y="293.12457"
     x="430.22601"><tspan
       style="font-size:20px;font-style:normal;font-variant:normal;font-weight:600;font-stretch:normal;text-align:center;line-height:110.00000238%;text-anchor:middle;fill:#ffffff;font-family:Open Sans;-inkscape-font-specification:Open Sans Semi-Bold"
       id="tspan10387-0-8"
       y="293.12457"
       x="430.22601">SAP HANA</tspan><tspan
       style="font-size:20px;font-style:normal;font-variant:normal;font-weight:600;font-stretch:normal;text-align:center;line-height:110.00000238%;text-anchor:middle;fill:#ffffff;font-family:Open Sans;-inkscape-font-specification:Open Sans Semi-Bold"
       id="tspan10491-7"
       y="315.12457"
       x="430.22601">HA Resource</tspan><tspan
       style="font-size:20px;font-style:normal;font-variant:normal;font-weight:600;font-stretch:normal;text-align:center;line-height:110.00000238%;text-anchor:middle;fill:#ffffff;font-family:Open Sans;-inkscape-font-specification:Open Sans Semi-Bold"
       id="tspan10521"
       y="337.12457"
       x="430.22601">Agents</tspan></text>
  <text
     style="font-size:40px;font-style:normal;font-weight:normal;text-align:center;line-height:110.00000238%;letter-spacing:0px;word-spacing:0px;text-anchor:middle;fill:#ffffff;fill-opacity:1;stroke:none;font-family:Sans"
     xml:space="preserve"
     id="text10385-12-2"
     y="937.26062"
     x="595.42096"><tspan
       style="font-size:20px;font-style:normal;font-variant:normal;font-weight:600;font-stretch:normal;text-align:center;line-height:110.00000238%;text-anchor:middle;fill:#ffffff;font-family:Open Sans;-inkscape-font-specification:Open Sans Semi-Bold"
       id="tspan10491-1"
       y="937.26062"
       x="595.42096">High Availability for SAP NetWeaver &amp;SAP HANA</tspan></text>
  <g
     id="g3068"
     transform="translate(0,-0.12695312)">
    <text
       style="font-size:40px;font-style:normal;font-weight:normal;line-height:110.00000238%;letter-spacing:0px;word-spacing:0px;fill:#ffffff;fill-opacity:1;stroke:none;font-family:Sans"
       xml:space="preserve"
       id="text10385-1"
       y="190.19531"
       x="227.0752"><tspan
         style="font-size:20px;font-style:normal;font-variant:normal;font-weight:600;font-stretch:normal;line-height:110.00000238%;fill:#ffffff;font-family:Open Sans;-inkscape-font-specification:Open Sans Semi-Bold"
         id="tspan10387-7"
         y="190.19531"
         x="227.0752">Antivirus</tspan></text>
    <text
       style="font-size:40px;font-style:normal;font-weight:normal;line-height:125%;letter-spacing:0px;word-spacing:0px;fill:#ffffff;fill-opacity:1;stroke:none;font-family:Sans"
       xml:space="preserve"
       id="text10385-4-6"
       y="211.15625"
       x="236.69141"><tspan
         style="font-size:16px;font-style:normal;font-variant:normal;font-weight:normal;font-stretch:normal;fill:#ffffff;font-family:Open Sans;-inkscape-font-specification:Open Sans"
         id="tspan10387-9-79"
         y="211.15625"
         x="236.69141">ClamSAP</tspan></text>
  </g>
  <g
     id="g3227">
    <text
       style="font-size:40px;font-style:normal;font-weight:normal;text-align:center;line-height:110.00000238%;letter-spacing:0px;word-spacing:0px;text-anchor:middle;fill:#ffffff;fill-opacity:1;stroke:none;font-family:Sans"
       xml:space="preserve"
       id="text10385-12-2-1"
       y="279.86133"
       x="589.83398"><tspan
         style="font-size:20px;font-style:normal;font-variant:normal;font-weight:600;font-stretch:normal;text-align:center;line-height:110.00000238%;text-anchor:middle;fill:#ffffff;font-family:Open Sans;-inkscape-font-specification:Open Sans Semi-Bold"
         id="tspan10566"
         y="279.86133"
         x="589.83398">Faster</tspan><tspan
         style="font-size:20px;font-style:normal;font-variant:normal;font-weight:600;font-stretch:normal;text-align:center;line-height:110.00000238%;text-anchor:middle;fill:#ffffff;font-family:Open Sans;-inkscape-font-specification:Open Sans Semi-Bold"
         id="tspan10568"
         y="301.86133"
         x="589.83398">Installation</tspan></text>
    <text
       style="font-size:40px;font-style:normal;font-weight:normal;text-align:center;line-height:110.00000238%;letter-spacing:0px;word-spacing:0px;text-anchor:middle;fill:#ffffff;fill-opacity:1;stroke:none;font-family:Sans"
       xml:space="preserve"
       id="text10385-4-9"
       y="322.97229"
       x="589.85938"><tspan
         style="font-size:16px;font-style:normal;font-variant:normal;font-weight:normal;font-stretch:normal;text-align:center;line-height:110.00000238%;text-anchor:middle;fill:#ffffff;font-family:Open Sans;-inkscape-font-specification:Open Sans"
         id="tspan10387-9-2"
         y="322.97229"
         x="589.85938">Installation</tspan><tspan
         style="font-size:16px;font-style:normal;font-variant:normal;font-weight:normal;font-stretch:normal;text-align:center;line-height:110.00000238%;text-anchor:middle;fill:#ffffff;font-family:Open Sans;-inkscape-font-specification:Open Sans"
         id="tspan10641"
         y="340.57227"
         x="589.85938">Workflow</tspan></text>
  </g>
  <g
     id="g10655"
     transform="translate(31.495544,-547.36218)">
    <text
       style="font-size:40px;font-style:normal;font-weight:normal;text-align:center;line-height:110.00000238%;letter-spacing:0px;word-spacing:0px;text-anchor:middle;fill:#ffffff;fill-opacity:1;stroke:none;font-family:Sans"
       xml:space="preserve"
       id="text10385-12-2-5"
       y="957.5575"
       x="318.34332"><tspan
         style="font-size:20px;font-style:normal;font-variant:normal;font-weight:600;font-stretch:normal;text-align:center;line-height:110.00000238%;text-anchor:middle;fill:#ffffff;font-family:Open Sans;-inkscape-font-specification:Open Sans Semi-Bold"
         id="tspan10491-1-0"
         y="957.5575"
         x="318.34332">Reliable, Scalable and Secure Operating System</tspan></text>
    <text
       style="font-size:40px;font-style:normal;font-weight:normal;line-height:125%;letter-spacing:0px;word-spacing:0px;fill:#ffffff;fill-opacity:1;stroke:none;font-family:Sans"
       xml:space="preserve"
       id="text10385-4-2"
       y="978.51843"
       x="210.38727"><tspan
         style="font-size:16px;font-style:normal;font-variant:normal;font-weight:normal;font-stretch:normal;fill:#ffffff;font-family:Open Sans;-inkscape-font-specification:Open Sans"
         id="tspan10387-9-4"
         y="978.51843"
         x="210.38727">SUSE Linux Enterprise Server</tspan></text>
  </g>
  <g
     id="g3219">
    <text
       style="font-size:40px;font-style:normal;font-weight:normal;text-align:center;line-height:110.00000238%;letter-spacing:0px;word-spacing:0px;text-anchor:middle;fill:#ffffff;fill-opacity:1;stroke:none;font-family:Sans"
       xml:space="preserve"
       id="text3078"
       y="280.37402"
       x="189.51172"><tspan
         style="font-size:20px;font-style:normal;font-variant:normal;font-weight:600;font-stretch:normal;text-align:center;line-height:110.00000238%;text-anchor:middle;fill:#ffffff;font-family:Open Sans;-inkscape-font-specification:Open Sans Semi-Bold"
         id="tspan3080"
         y="280.37402"
         x="189.51172">High Availability for</tspan><tspan
         style="font-size:20px;font-style:normal;font-variant:normal;font-weight:600;font-stretch:normal;text-align:center;line-height:110.00000238%;text-anchor:middle;fill:#ffffff;font-family:Open Sans;-inkscape-font-specification:Open Sans Semi-Bold"
         id="tspan3082"
         y="302.37402"
         x="189.51172">SAP NetWeaver &amp; SAP HANA</tspan></text>
    <text
       style="font-size:40px;font-style:normal;font-weight:normal;line-height:110.00000238%;letter-spacing:0px;word-spacing:0px;fill:#ffffff;fill-opacity:1;stroke:none;font-family:Sans"
       xml:space="preserve"
       id="text3092"
       y="323.48495"
       x="189.85938"><tspan
         style="font-size:16px;font-style:normal;font-variant:normal;font-weight:normal;font-stretch:normal;text-align:center;line-height:110.00000238%;text-anchor:middle;fill:#ffffff;font-family:Open Sans;-inkscape-font-specification:Open Sans"
         id="tspan3094"
         y="323.48495"
         x="189.85938">SUSE Linux Enterprise</tspan><tspan
         style="font-size:16px;font-style:normal;font-variant:normal;font-weight:normal;font-stretch:normal;text-align:center;line-height:110.00000238%;text-anchor:middle;fill:#ffffff;font-family:Open Sans;-inkscape-font-specification:Open Sans"
         id="tspan3096"
         y="341.08496"
         x="189.85938">High Availability Extension</tspan></text>
  </g>
</svg>
