<?xml version="1.0" encoding="UTF-8" standalone="no"?>
<!-- Created with Inkscape (http://www.inkscape.org/) -->

<svg
   xmlns:dc="http://purl.org/dc/elements/1.1/"
   xmlns:cc="http://creativecommons.org/ns#"
   xmlns:rdf="http://www.w3.org/1999/02/22-rdf-syntax-ns#"
   xmlns:svg="http://www.w3.org/2000/svg"
   xmlns="http://www.w3.org/2000/svg"
   version="1.2"
   width="700"
   height="500"
   id="svg6843">
  <defs
     id="defs6845" />
  <metadata
     id="metadata6848">
    <rdf:RDF>
      <cc:Work
         rdf:about="">
        <dc:format>image/svg+xml</dc:format>
        <dc:type
           rdf:resource="http://purl.org/dc/dcmitype/StillImage" />
        <dc:title></dc:title>
      </cc:Work>
    </rdf:RDF>
  </metadata>
  <rect
     width="700"
     height="500"
     x="0"
     y="2.6171874e-06"
     id="rect6851"
     style="fill:#ffffff;fill-opacity:1;stroke:none" />
  <path
     d="m 16,15 0,2 8.03125,0 0,-2 z m 12.03125,0 0,2 8.03125,0 0,-2 z m 12.03125,0 0,2 8.03125,0 0,-2 z m 12.0625,0 0,2 8,0 0,-2 z m 12.03125,0 0,2 8,0 0,-2 z m 12.03125,0 0,2 8.03125,0 0,-2 z m 12.03125,0 0,2 8.03125,0 0,-2 z m 12.03125,0 0,2 8.03125,0 0,-2 z m 12.03125,0 0,2 8.03125,0 0,-2 z m 12.03125,0 0,2 8.03125,0 0,-2 z m 12.0625,0 0,2 8,0 0,-2 z m 12.03125,0 0,2 8.03125,0 0,-2 z m 12.03125,0 0,2 8.03125,0 0,-2 z m 12.03125,0 0,2 8.03125,0 0,-2 z m 12.03125,0 0,2 8.03125,0 0,-2 z m 12.03125,0 0,2 8.03125,0 0,-2 z m 300.90625,0 0,2 8.03125,0 0,-2 z m 12.03125,0 0,2 8.03125,0 0,-2 z m 12.03125,0 0,2 8.03125,0 0,-2 z m 12.0625,0 0,2 8,0 0,-2 z m 12.03125,0 0,2 8.03125,0 0,-2 z m 12.03125,0 0,2 8.03125,0 0,-2 z m 12.03125,0 0,2 8.03125,0 0,-2 z m 12.03125,0 0,2 8.03125,0 0,-2 z m 12.03125,0 0,2 8.03125,0 0,-2 z m 12.0625,0 0,2 8,0 0,-2 z m 12.03125,0 0,2 8,0 0,-2 z m 12.03125,0 0,2 8.03125,0 0,-2 z m 12.03125,0 0,2 8.03125,0 0,-2 z m 12.03125,0 0,2 8.03125,0 0,-2 z m 12.03125,0 0,2 8.03125,0 0,-2 z m 12.03125,0 0,2 5.03125,0 0,1 2,0 0,-2 -0.40625,-0.8125 L 684,15 z M 15,17.1875 l 0,8 2,0 0,-8 z M 683,22 l 0,8.03125 2,0 L 685,22 z m -668,7.21875 0,8 2,0 0,-8 z m 668,4.84375 0,8 2,0 0,-8 z M 15,41.25 l 0,8.03125 2,0 0,-8.03125 z m 668,4.84375 0,8 2,0 0,-8 z m -668,7.1875 0,8.03125 2,0 0,-8.03125 z m 668,4.84375 0,8.03125 2,0 0,-8.03125 z m -668,7.1875 0,8.03125 2,0 0,-8.03125 z m 668,4.84375 0,8.03125 2,0 0,-8.03125 z m -668,7.1875 0,8.03125 2,0 0,-8.03125 z m 668,4.84375 0,8.03125 2,0 0,-8.03125 z m -668,7.1875 0,8.03125 2,0 0,-8.03125 z m 668,4.84375 0,8.03125 2,0 0,-8.03125 z m -668,7.21875 0,8 2,0 0,-8 z m 668,4.8125 0,8.03125 2,0 0,-8.03125 z m -668,7.21875 0,8 2,0 0,-8 z m 668,4.84375 0,8 2,0 0,-8 z M 15,125.5 l 0,8.03125 2,0 0,-8.03125 z m 668,4.84375 0,8.03125 2,0 0,-8.03125 z m -668,7.1875 0,8.03125 2,0 0,-8.03125 z m 668,4.84375 0,8.03125 2,0 0,-8.03125 z m -668,7.1875 0,8.03125 2,0 0,-8.03125 z m 668,4.84375 0,8.03125 2,0 0,-8.03125 z m -668,7.1875 0,8.03125 2,0 0,-8.03125 z m 668,4.84375 0,8.03125 2,0 0,-8.03125 z m -668,7.1875 0,8.03125 2,0 0,-8.03125 z m 668,4.84375 0,8.03125 2,0 0,-8.03125 z m -668,7.21875 0,8 2,0 0,-8 z m 668,4.84375 0,8 2,0 0,-8 z m -668,7.1875 0,8.03125 2,0 0,-8.03125 z m 668,4.84375 0,8 2,0 0,-8 z m -668,7.1875 0,8.03125 2,0 0,-8.03125 z m 668,4.84375 0,8.03125 2,0 0,-8.03125 z m -668,7.1875 0,8.03125 2,0 0,-8.03125 z m 668,4.84375 0,8.03125 2,0 0,-8.03125 z m -668,7.1875 0,8.03125 2,0 0,-8.03125 z m 668,4.84375 0,8.03125 2,0 0,-8.03125 z m -668,7.1875 0,8.03125 2,0 0,-8.03125 z m 668,4.84375 0,8.03125 2,0 0,-8.03125 z m -668,7.21875 0,8 2,0 0,-8 z m 668,4.8125 0,8.03125 2,0 0,-8.03125 z m -668,7.21875 0,8 2,0 0,-8 z m 668,4.84375 0,8 2,0 0,-8 z m -668,7.1875 0,8.03125 2,0 0,-8.03125 z m 668,4.84375 0,8.03125 2,0 0,-8.03125 z M 15,294 l 0,8.03125 2,0 L 17,294 z m 668,4.84375 0,8.03125 2,0 0,-8.03125 z m -668,7.1875 0,8.03125 2,0 0,-8.03125 z m 668,4.84375 0,8.03125 2,0 0,-8.03125 z m -668,7.1875 0,8.03125 2,0 0,-8.03125 z m 668,4.84375 0,8.03125 2,0 0,-8.03125 z m -668,7.1875 0,8.03125 2,0 0,-8.03125 z m 668,4.84375 0,8.03125 2,0 0,-8.03125 z m -668,7.21875 0,8 2,0 0,-8 z M 683,347 l 0,8 2,0 0,-8 z m -668,7.1875 0,8.03125 2,0 0,-8.03125 z m 668,4.84375 0,8 2,0 0,-8 z m -668,7.1875 0,8.03125 2,0 0,-8.03125 z m 668,4.84375 0,8.03125 2,0 0,-8.03125 z m -668,7.1875 0,8.03125 2,0 0,-8.03125 z m 668,4.84375 0,8.03125 2,0 0,-8.03125 z m -668,7.1875 0,8.03125 2,0 0,-8.03125 z m 668,4.84375 0,8.03125 2,0 0,-8.03125 z m -668,7.1875 0,8.03125 2,0 0,-8.03125 z m 668,4.84375 0,8.03125 2,0 0,-8.03125 z m -668,7.21875 0,8 2,0 0,-8 z m 668,4.8125 0,8.03125 2,0 0,-8.03125 z m -668,7.21875 0,8 2,0 0,-8 z m 668,4.84375 0,8 2,0 0,-8 z m -668,7.1875 0,8.03125 2,0 0,-8.03125 z m 668,4.84375 0,8.03125 2,0 0,-8.03125 z m -668,7.1875 0,8.03125 2,0 0,-8.03125 z m 668,4.84375 0,8.03125 2,0 0,-8.03125 z M 15,462.5 l 0,8.03125 2,0 0,-8.03125 z m 668,4.84375 0,8.03125 2,0 0,-8.03125 z m -668,7.1875 0,8.03125 2,0 0,-8.03125 z m 668,4.84375 0,3.59375 -2.4375,0 0,2.03125 3.4375,0 0.8125,-0.40625 0.1875,-0.625 0,-4.59375 z m -664.40625,3.59375 0,2.03125 8.03125,0 0,-2.03125 z m 12.03125,0 0,2.03125 8.03125,0 0,-2.03125 z m 12.03125,0 0,2.03125 8.03125,0 0,-2.03125 z m 12.0625,0 0,2.03125 8,0 0,-2.03125 z m 12.03125,0 0,2.03125 8,0 0,-2.03125 z m 12.03125,0 0,2.03125 8.03125,0 0,-2.03125 z m 12.03125,0 0,2.03125 8.03125,0 0,-2.03125 z m 12.03125,0 0,2.03125 8.03125,0 0,-2.03125 z m 12.03125,0 0,2.03125 8.03125,0 0,-2.03125 z m 12.03125,0 0,2.03125 8.03125,0 0,-2.03125 z m 12.0625,0 0,2.03125 8,0 0,-2.03125 z m 12.03125,0 0,2.03125 8.03125,0 0,-2.03125 z m 12.03125,0 0,2.03125 8.03125,0 0,-2.03125 z m 12.03125,0 0,2.03125 8.03125,0 0,-2.03125 z m 12.03125,0 0,2.03125 8.03125,0 0,-2.03125 z m 12.03125,0 0,2.03125 5.875,0 0,-2.03125 z m 300.90625,0 0,2.03125 8.03125,0 0,-2.03125 z m 12.03125,0 0,2.03125 8.03125,0 0,-2.03125 z m 12.03125,0 0,2.03125 8.03125,0 0,-2.03125 z m 12.0625,0 0,2.03125 8,0 0,-2.03125 z m 12.03125,0 0,2.03125 8.03125,0 0,-2.03125 z m 12.03125,0 0,2.03125 8.03125,0 0,-2.03125 z m 12.03125,0 0,2.03125 8.03125,0 0,-2.03125 z m 12.03125,0 0,2.03125 8.03125,0 0,-2.03125 z m 12.03125,0 0,2.03125 8.03125,0 0,-2.03125 z m 12.0625,0 0,2.03125 8,0 0,-2.03125 z m 12.03125,0 0,2.03125 8,0 0,-2.03125 z m 12.03125,0 0,2.03125 8.03125,0 0,-2.03125 z m 12.03125,0 0,2.03125 8.03125,0 0,-2.03125 z m 12.03125,0 0,2.03125 8.03125,0 0,-2.03125 z m 12.03125,0 0,2.03125 8.03125,0 0,-2.03125 z"
     id="rect6853"
     style="font-size:medium;font-style:normal;font-variant:normal;font-weight:normal;font-stretch:normal;text-indent:0;text-align:start;text-decoration:none;line-height:normal;letter-spacing:normal;word-spacing:normal;text-transform:none;direction:ltr;block-progression:tb;writing-mode:lr-tb;text-anchor:start;baseline-shift:baseline;color:#000000;fill:#007fb2;fill-opacity:1;stroke:none;stroke-width:2.00600004;marker:none;visibility:visible;display:inline;overflow:visible;enable-background:accumulate;font-family:Sans;-inkscape-font-specification:Sans" />
  <text
     x="214.86406"
     y="22.19507"
     id="text10184"
     xml:space="preserve"
     style="font-size:39.99998474px;font-style:normal;font-weight:normal;line-height:125%;letter-spacing:66.10997772px;word-spacing:0px;fill:#007fb2;fill-opacity:1;stroke:none;font-family:Sans"><tspan
       x="214.86406"
       y="22.19507"
       id="tspan10186"
       style="font-size:19.99999237px;font-style:normal;font-variant:normal;font-weight:normal;font-stretch:normal;letter-spacing:0px;fill:#007fb2;fill-opacity:1;font-family:Open Sans;-inkscape-font-specification:Open Sans">24×7 Priority Support for SAP</tspan></text>
  <text
     x="214.86406"
     y="492.19507"
     id="text10184-2"
     xml:space="preserve"
     style="font-size:39.99998474px;font-style:normal;font-weight:normal;line-height:125%;letter-spacing:66.10997772px;word-spacing:0px;fill:#007fb2;fill-opacity:1;stroke:none;font-family:Sans"><tspan
       x="214.86406"
       y="492.19507"
       id="tspan10186-3"
       style="font-size:19.99999237px;font-style:normal;font-variant:normal;font-weight:normal;font-stretch:normal;letter-spacing:0px;fill:#007fb2;fill-opacity:1;font-family:Open Sans;-inkscape-font-specification:Open Sans">24×7 Priority Support for SAP</tspan></text>
  <rect
     width="630"
     height="100"
     x="35"
     y="365"
     id="rect10220"
     style="fill:#629e1f;fill-opacity:1;stroke:none" />
  <rect
     width="310"
     height="100"
     x="35"
     y="255"
     id="rect10222"
     style="fill:#629e1f;fill-opacity:1;stroke:none" />
  <rect
     width="150"
     height="100"
     x="515"
     y="255"
     id="rect10222-2-4"
     style="fill:#007fb2;fill-opacity:1;stroke:none" />
  <rect
     width="150"
     height="100"
     x="355"
     y="145"
     id="rect10222-2-9"
     style="fill:#007fb2;fill-opacity:1;stroke:none" />
  <rect
     width="150"
     height="100"
     x="515"
     y="145"
     id="rect10222-2-4-1"
     style="fill:#007fb2;fill-opacity:1;stroke:none" />
  <rect
     width="150"
     height="100"
     x="35"
     y="145"
     id="rect10222-2-94"
     style="fill:#007fb2;fill-opacity:1;stroke:none" />
  <rect
     width="150"
     height="100"
     x="195"
     y="145"
     id="rect10222-2-4-10"
     style="fill:#007fb2;fill-opacity:1;stroke:none" />
  <rect
     width="630"
     height="100"
     x="35"
     y="35.000004"
     id="rect10220-3"
     style="fill:#007fb2;fill-opacity:1;stroke:none" />
  <g
     id="g3132">
    <path
       d="m 504,258 0,96 -146,0 0,2 148,0 0,-98 z"
       id="rect10222-2-2"
       style="fill:#007fb2;fill-opacity:1;stroke:none" />
    <rect
       width="148"
       height="98"
       x="355"
       y="255"
       id="rect10222-2"
       style="fill:#007fb2;fill-opacity:1;stroke:none" />
    <path
       d="m 507,261 0,96 -146,0 0,2 148,0 0,-98 z"
       id="rect10222-2-2-5"
       style="fill:#007fb2;fill-opacity:1;stroke:none" />
  </g>
  <g
     transform="translate(0,3.8146973e-6)"
     id="g3062">
    <text
       x="200.46875"
       y="80.195312"
       id="text10385"
       xml:space="preserve"
       style="font-size:40px;font-style:normal;font-weight:normal;line-height:110.00000238%;letter-spacing:0px;word-spacing:0px;fill:#ffffff;fill-opacity:1;stroke:none;font-family:Sans"><tspan
         x="200.46875"
         y="80.195312"
         id="tspan10387"
         style="font-size:20px;font-style:normal;font-variant:normal;font-weight:600;font-stretch:normal;line-height:110.00000238%;fill:#ffffff;font-family:Open Sans;-inkscape-font-specification:Open Sans Semi-Bold">Extended Service Pack Support</tspan></text>
    <text
       x="263.70703"
       y="101.15625"
       id="text10385-4"
       xml:space="preserve"
       style="font-size:40px;font-style:normal;font-weight:normal;line-height:125%;letter-spacing:0px;word-spacing:0px;fill:#ffffff;fill-opacity:1;stroke:none;font-family:Sans"><tspan
         x="263.70703"
         y="101.15625"
         id="tspan10387-9"
         style="font-size:16px;font-style:normal;font-variant:normal;font-weight:normal;font-stretch:normal;fill:#ffffff;font-family:Open Sans;-inkscape-font-specification:Open Sans">18 Month Grace Period</tspan></text>
  </g>
  <text
     x="109.31641"
     y="189.19531"
     id="text10385-5"
     xml:space="preserve"
     style="font-size:40px;font-style:normal;font-weight:normal;text-align:center;line-height:110.00000238%;letter-spacing:0px;word-spacing:0px;text-anchor:middle;fill:#ffffff;fill-opacity:1;stroke:none;font-family:Sans"><tspan
       x="109.31641"
       y="189.19531"
       id="tspan10387-5"
       style="font-size:20px;font-style:normal;font-variant:normal;font-weight:600;font-stretch:normal;text-align:center;line-height:110.00000238%;text-anchor:middle;fill:#ffffff;font-family:Open Sans;-inkscape-font-specification:Open Sans Semi-Bold">Page Cache</tspan><tspan
       x="109.31641"
       y="211.19531"
       id="tspan10450"
       style="font-size:20px;font-style:normal;font-variant:normal;font-weight:600;font-stretch:normal;text-align:center;line-height:110.00000238%;text-anchor:middle;fill:#ffffff;font-family:Open Sans;-inkscape-font-specification:Open Sans Semi-Bold">Management</tspan></text>
  <text
     x="429.51172"
     y="188.83887"
     id="text10385-12"
     xml:space="preserve"
     style="font-size:40px;font-style:normal;font-weight:normal;text-align:center;line-height:110.00000238%;letter-spacing:0px;word-spacing:0px;text-anchor:middle;fill:#ffffff;fill-opacity:1;stroke:none;font-family:Sans"><tspan
       x="429.51172"
       y="188.83887"
       id="tspan10387-0"
       style="font-size:20px;font-style:normal;font-variant:normal;font-weight:600;font-stretch:normal;text-align:center;line-height:110.00000238%;text-anchor:middle;fill:#ffffff;font-family:Open Sans;-inkscape-font-specification:Open Sans Semi-Bold">SAP HANA</tspan><tspan
       x="429.51172"
       y="210.83887"
       id="tspan10491"
       style="font-size:20px;font-style:normal;font-variant:normal;font-weight:600;font-stretch:normal;text-align:center;line-height:110.00000238%;text-anchor:middle;fill:#ffffff;font-family:Open Sans;-inkscape-font-specification:Open Sans Semi-Bold">Security</tspan></text>
  <text
     x="588.10895"
     y="180.90961"
     id="text10385-8"
     xml:space="preserve"
     style="font-size:40px;font-style:normal;font-weight:normal;text-align:center;line-height:110.00000238%;letter-spacing:0px;word-spacing:0px;text-anchor:middle;fill:#ffffff;fill-opacity:1;stroke:none;font-family:Sans"><tspan
       x="588.10895"
       y="180.90961"
       id="tspan10387-6"
       style="font-size:20px;font-style:normal;font-variant:normal;font-weight:600;font-stretch:normal;text-align:center;line-height:110.00000238%;text-anchor:middle;fill:#ffffff;font-family:Open Sans;-inkscape-font-specification:Open Sans Semi-Bold">Simplified</tspan><tspan
       x="588.10895"
       y="202.90961"
       id="tspan10493"
       style="font-size:20px;font-style:normal;font-variant:normal;font-weight:600;font-stretch:normal;text-align:center;line-height:110.00000238%;text-anchor:middle;fill:#ffffff;font-family:Open Sans;-inkscape-font-specification:Open Sans Semi-Bold">Operations</tspan><tspan
       x="588.10895"
       y="224.90961"
       id="tspan10495"
       style="font-size:20px;font-style:normal;font-variant:normal;font-weight:600;font-stretch:normal;text-align:center;line-height:110.00000238%;text-anchor:middle;fill:#ffffff;font-family:Open Sans;-inkscape-font-specification:Open Sans Semi-Bold">Management</tspan></text>
  <text
     x="430.22601"
     y="293.12457"
     id="text10385-12-9"
     xml:space="preserve"
     style="font-size:40px;font-style:normal;font-weight:normal;text-align:center;line-height:110.00000238%;letter-spacing:0px;word-spacing:0px;text-anchor:middle;fill:#ffffff;fill-opacity:1;stroke:none;font-family:Sans"><tspan
       x="430.22601"
       y="293.12457"
       id="tspan10387-0-8"
       style="font-size:20px;font-style:normal;font-variant:normal;font-weight:600;font-stretch:normal;text-align:center;line-height:110.00000238%;text-anchor:middle;fill:#ffffff;font-family:Open Sans;-inkscape-font-specification:Open Sans Semi-Bold">SAP HANA</tspan><tspan
       x="430.22601"
       y="315.12457"
       id="tspan10491-7"
       style="font-size:20px;font-style:normal;font-variant:normal;font-weight:600;font-stretch:normal;text-align:center;line-height:110.00000238%;text-anchor:middle;fill:#ffffff;font-family:Open Sans;-inkscape-font-specification:Open Sans Semi-Bold">HA Resource</tspan><tspan
       x="430.22601"
       y="337.12457"
       id="tspan10521"
       style="font-size:20px;font-style:normal;font-variant:normal;font-weight:600;font-stretch:normal;text-align:center;line-height:110.00000238%;text-anchor:middle;fill:#ffffff;font-family:Open Sans;-inkscape-font-specification:Open Sans Semi-Bold">Agents</tspan></text>
  <text
     x="595.42096"
     y="937.26062"
     id="text10385-12-2"
     xml:space="preserve"
     style="font-size:40px;font-style:normal;font-weight:normal;text-align:center;line-height:110.00000238%;letter-spacing:0px;word-spacing:0px;text-anchor:middle;fill:#ffffff;fill-opacity:1;stroke:none;font-family:Sans"><tspan
       x="595.42096"
       y="937.26062"
       id="tspan10491-1"
       style="font-size:20px;font-style:normal;font-variant:normal;font-weight:600;font-stretch:normal;text-align:center;line-height:110.00000238%;text-anchor:middle;fill:#ffffff;font-family:Open Sans;-inkscape-font-specification:Open Sans Semi-Bold">High Availability for SAP NetWeaver &amp;SAP HANA</tspan></text>
  <g
     transform="translate(0,-0.12695312)"
     id="g3068">
    <text
       x="227.0752"
       y="190.19531"
       id="text10385-1"
       xml:space="preserve"
       style="font-size:40px;font-style:normal;font-weight:normal;line-height:110.00000238%;letter-spacing:0px;word-spacing:0px;fill:#ffffff;fill-opacity:1;stroke:none;font-family:Sans"><tspan
         x="227.0752"
         y="190.19531"
         id="tspan10387-7"
         style="font-size:20px;font-style:normal;font-variant:normal;font-weight:600;font-stretch:normal;line-height:110.00000238%;fill:#ffffff;font-family:Open Sans;-inkscape-font-specification:Open Sans Semi-Bold">Antivirus</tspan></text>
    <text
       x="236.69141"
       y="211.15625"
       id="text10385-4-6"
       xml:space="preserve"
       style="font-size:40px;font-style:normal;font-weight:normal;line-height:125%;letter-spacing:0px;word-spacing:0px;fill:#ffffff;fill-opacity:1;stroke:none;font-family:Sans"><tspan
         x="236.69141"
         y="211.15625"
         id="tspan10387-9-79"
         style="font-size:16px;font-style:normal;font-variant:normal;font-weight:normal;font-stretch:normal;fill:#ffffff;font-family:Open Sans;-inkscape-font-specification:Open Sans">ClamSAP</tspan></text>
  </g>
  <g
     id="g3227">
    <text
       x="589.83398"
       y="279.86133"
       id="text10385-12-2-1"
       xml:space="preserve"
       style="font-size:40px;font-style:normal;font-weight:normal;text-align:center;line-height:110.00000238%;letter-spacing:0px;word-spacing:0px;text-anchor:middle;fill:#ffffff;fill-opacity:1;stroke:none;font-family:Sans"><tspan
         x="589.83398"
         y="279.86133"
         id="tspan10566"
         style="font-size:20px;font-style:normal;font-variant:normal;font-weight:600;font-stretch:normal;text-align:center;line-height:110.00000238%;text-anchor:middle;fill:#ffffff;font-family:Open Sans;-inkscape-font-specification:Open Sans Semi-Bold">Faster</tspan><tspan
         x="589.83398"
         y="301.86133"
         id="tspan10568"
         style="font-size:20px;font-style:normal;font-variant:normal;font-weight:600;font-stretch:normal;text-align:center;line-height:110.00000238%;text-anchor:middle;fill:#ffffff;font-family:Open Sans;-inkscape-font-specification:Open Sans Semi-Bold">Installation</tspan></text>
    <text
       x="589.85938"
       y="322.97229"
       id="text10385-4-9"
       xml:space="preserve"
       style="font-size:40px;font-style:normal;font-weight:normal;text-align:center;line-height:110.00000238%;letter-spacing:0px;word-spacing:0px;text-anchor:middle;fill:#ffffff;fill-opacity:1;stroke:none;font-family:Sans"><tspan
         x="589.85938"
         y="322.97229"
         id="tspan10387-9-2"
         style="font-size:16px;font-style:normal;font-variant:normal;font-weight:normal;font-stretch:normal;text-align:center;line-height:110.00000238%;text-anchor:middle;fill:#ffffff;font-family:Open Sans;-inkscape-font-specification:Open Sans">Installation</tspan><tspan
         x="589.85938"
         y="340.57227"
         id="tspan10641"
         style="font-size:16px;font-style:normal;font-variant:normal;font-weight:normal;font-stretch:normal;text-align:center;line-height:110.00000238%;text-anchor:middle;fill:#ffffff;font-family:Open Sans;-inkscape-font-specification:Open Sans">Workflow</tspan></text>
  </g>
  <g
     transform="translate(31.495544,-547.36218)"
     id="g10655">
    <text
       x="318.34332"
       y="957.5575"
       id="text10385-12-2-5"
       xml:space="preserve"
       style="font-size:40px;font-style:normal;font-weight:normal;text-align:center;line-height:110.00000238%;letter-spacing:0px;word-spacing:0px;text-anchor:middle;fill:#ffffff;fill-opacity:1;stroke:none;font-family:Sans"><tspan
         x="318.34332"
         y="957.5575"
         id="tspan10491-1-0"
         style="font-size:20px;font-style:normal;font-variant:normal;font-weight:600;font-stretch:normal;text-align:center;line-height:110.00000238%;text-anchor:middle;fill:#ffffff;font-family:Open Sans;-inkscape-font-specification:Open Sans Semi-Bold">Reliable, Scalable and Secure Operating System</tspan></text>
    <text
       x="210.38727"
       y="978.51843"
       id="text10385-4-2"
       xml:space="preserve"
       style="font-size:40px;font-style:normal;font-weight:normal;line-height:125%;letter-spacing:0px;word-spacing:0px;fill:#ffffff;fill-opacity:1;stroke:none;font-family:Sans"><tspan
         x="210.38727"
         y="978.51843"
         id="tspan10387-9-4"
         style="font-size:16px;font-style:normal;font-variant:normal;font-weight:normal;font-stretch:normal;fill:#ffffff;font-family:Open Sans;-inkscape-font-specification:Open Sans">SUSE Linux Enterprise Server</tspan></text>
  </g>
  <g
     id="g3219">
    <text
       x="189.51172"
       y="280.37402"
       id="text3078"
       xml:space="preserve"
       style="font-size:40px;font-style:normal;font-weight:normal;text-align:center;line-height:110.00000238%;letter-spacing:0px;word-spacing:0px;text-anchor:middle;fill:#ffffff;fill-opacity:1;stroke:none;font-family:Sans"><tspan
         x="189.51172"
         y="280.37402"
         id="tspan3080"
         style="font-size:20px;font-style:normal;font-variant:normal;font-weight:600;font-stretch:normal;text-align:center;line-height:110.00000238%;text-anchor:middle;fill:#ffffff;font-family:Open Sans;-inkscape-font-specification:Open Sans Semi-Bold">High Availability for</tspan><tspan
         x="189.51172"
         y="302.37402"
         id="tspan3082"
         style="font-size:20px;font-style:normal;font-variant:normal;font-weight:600;font-stretch:normal;text-align:center;line-height:110.00000238%;text-anchor:middle;fill:#ffffff;font-family:Open Sans;-inkscape-font-specification:Open Sans Semi-Bold">SAP NetWeaver &amp; SAP HANA</tspan></text>
    <text
       x="189.85938"
       y="323.48495"
       id="text3092"
       xml:space="preserve"
       style="font-size:40px;font-style:normal;font-weight:normal;line-height:110.00000238%;letter-spacing:0px;word-spacing:0px;fill:#ffffff;fill-opacity:1;stroke:none;font-family:Sans"><tspan
         x="189.85938"
         y="323.48495"
         id="tspan3094"
         style="font-size:16px;font-style:normal;font-variant:normal;font-weight:normal;font-stretch:normal;text-align:center;line-height:110.00000238%;text-anchor:middle;fill:#ffffff;font-family:Open Sans;-inkscape-font-specification:Open Sans">SUSE Linux Enterprise</tspan><tspan
         x="189.85938"
         y="341.08496"
         id="tspan3096"
         style="font-size:16px;font-style:normal;font-variant:normal;font-weight:normal;font-stretch:normal;text-align:center;line-height:110.00000238%;text-anchor:middle;fill:#ffffff;font-family:Open Sans;-inkscape-font-specification:Open Sans">High Availability Extension</tspan></text>
  </g>
</svg>
